<?xml version="1.0" encoding="UTF-8"?>
<svg xmlns="http://www.w3.org/2000/svg" xmlns:xlink="http://www.w3.org/1999/xlink" width="40px" height="40px" viewBox="0 0 40 40" version="1.1">
<g id="surface1">
<path style=" stroke:none;fill-rule:nonzero;fill:rgb(56.862748%,86.666667%,35.294119%);fill-opacity:1;" d="M 40 20 C 40 8.953125 31.046875 0 20 0 C 8.953125 0 0 8.953125 0 20 C 0 31.046875 8.953125 40 20 40 C 31.046875 40 40 31.046875 40 20 Z M 40 20 "/>
<path style=" stroke:none;fill-rule:nonzero;fill:rgb(49.411765%,83.92157%,24.705882%);fill-opacity:1;" d="M 20 0 C 19.117188 0 18.246094 0.0585938 17.390625 0.167969 C 27.203125 1.449219 34.78125 9.839844 34.78125 20 C 34.78125 30.160156 27.203125 38.550781 17.390625 39.832031 C 18.246094 39.941406 19.117188 40 20 40 C 31.046875 40 40 31.046875 40 20 C 40 8.953125 31.046875 0 20 0 Z M 20 0 "/>
<path style=" stroke:none;fill-rule:nonzero;fill:rgb(100%,100%,100%);fill-opacity:1;" d="M 20 33.957031 C 16.640625 33.957031 13.402344 32.75 10.867188 30.554688 C 10.8125 30.503906 10.742188 30.476562 10.667969 30.476562 L 6.472656 30.476562 C 6.257812 30.476562 6.109375 30.261719 6.191406 30.058594 L 7.578125 26.59375 C 7.609375 26.511719 7.605469 26.417969 7.566406 26.339844 C 6.570312 24.390625 6.042969 22.203125 6.042969 20 C 6.042969 12.269531 12.363281 5.984375 20.109375 6.042969 C 27.699219 6.101562 33.898438 12.300781 33.957031 19.890625 C 34.015625 27.636719 27.730469 33.957031 20 33.957031 Z M 20 33.957031 "/>
<path style=" stroke:none;fill-rule:nonzero;fill:rgb(49.411765%,83.92157%,24.705882%);fill-opacity:1;" d="M 20 31.347656 C 17.238281 31.347656 14.578125 30.34375 12.507812 28.519531 L 11.980469 28.058594 C 11.84375 27.9375 11.664062 27.871094 11.480469 27.871094 L 10.226562 27.871094 C 10.058594 27.871094 9.945312 27.699219 10.003906 27.542969 L 10.367188 26.640625 C 10.449219 26.4375 10.4375 26.203125 10.335938 26.007812 L 9.941406 25.253906 C 9.097656 23.644531 8.652344 21.828125 8.652344 20 C 8.652344 13.742188 13.742188 8.652344 20 8.652344 C 26.257812 8.652344 31.347656 13.742188 31.347656 20 C 31.347656 26.257812 26.257812 31.347656 20 31.347656 Z M 20 31.347656 "/>
<path style=" stroke:none;fill-rule:nonzero;fill:rgb(100%,100%,100%);fill-opacity:1;" d="M 23.550781 27.996094 C 23.140625 27.996094 22.746094 27.867188 22.410156 27.628906 C 18.539062 24.839844 15.160156 21.464844 12.371094 17.589844 C 11.808594 16.808594 11.898438 15.742188 12.585938 15.054688 L 15.386719 12.253906 C 15.945312 11.695312 16.851562 11.695312 17.410156 12.253906 L 19.140625 13.984375 C 19.695312 14.542969 19.695312 15.445312 19.140625 16.003906 L 18.664062 16.480469 C 18.429688 16.710938 18.359375 17.0625 18.484375 17.367188 C 19.28125 19.328125 20.671875 20.71875 22.632812 21.515625 C 22.9375 21.640625 23.289062 21.570312 23.519531 21.335938 L 23.996094 20.859375 C 24.554688 20.304688 25.457031 20.304688 26.015625 20.859375 L 27.746094 22.589844 C 28.304688 23.148438 28.304688 24.054688 27.746094 24.613281 L 24.945312 27.414062 C 24.570312 27.789062 24.074219 27.996094 23.550781 27.996094 Z M 23.550781 27.996094 "/>
</g>
</svg>
